<svg width="259" height="54" viewBox="0 0 259 54" fill="none" xmlns="http://www.w3.org/2000/svg">
<path fill-rule="evenodd" clip-rule="evenodd" d="M33.0719 15.5381C35.8158 13.0424 39.5098 11.5728 43.5482 11.7388C51.2813 12.0566 57.481 18.4386 57.5884 26.1782C57.7019 34.3697 51.0957 41.0456 42.9303 41.0456C39.1338 41.0456 35.6752 39.6014 33.0719 37.2336H24.2989C23.443 37.2336 22.7492 36.5398 22.7492 35.6839C22.7492 34.8281 23.4429 34.1343 24.2987 34.1343H33.4032C34.2686 34.1341 34.9682 33.4246 34.9523 32.5555C34.9366 31.7024 34.2046 31.035 33.3515 31.035H31.5761H29.0237H25.8484C24.983 31.035 24.2832 30.3254 24.299 29.4563C24.3147 28.6031 25.0465 27.9356 25.8998 27.9356H28.3521H31.5761H34.1299C34.9954 27.9356 35.6953 27.226 35.6793 26.3569C35.6636 25.5037 34.9318 24.8362 34.0785 24.8362H28.3521H1.33216C0.596424 24.8362 0 24.2398 0 23.504V23.069C0 22.3333 0.596424 21.7368 1.33216 21.7368H31.2806H34.13C34.9955 21.7368 35.6954 21.0272 35.6794 20.1581C35.6638 19.305 34.9319 18.6374 34.0787 18.6374H30.4847H20.9551C20.0897 18.6374 19.3898 17.9278 19.4057 17.0587C19.4214 16.2056 20.1532 15.5381 21.0065 15.5381H33.0719ZM40.5833 29.2499L45.8958 34.9999C46.0347 35.1388 46.1979 35.2499 46.3854 35.3333C46.5729 35.4166 46.7639 35.4583 46.9583 35.4583C47.5972 35.4583 48.0416 35.1701 48.2916 34.5937C48.5416 34.0173 48.4514 33.4999 48.0208 33.0416L44.4583 29.2083H44.3333C45.4722 29.1527 46.4653 28.7603 47.3125 28.0312C48.1597 27.302 48.6736 26.3749 48.8541 25.2499H49.25C49.6389 25.2499 49.9722 25.111 50.25 24.8333C50.5278 24.5555 50.6666 24.2222 50.6666 23.8333C50.6666 23.4444 50.5278 23.111 50.25 22.8333C49.9722 22.5555 49.6389 22.4166 49.25 22.4166H48.8333C48.7778 22.2499 48.6805 22.0555 48.5416 21.8333C48.4028 21.611 48.2778 21.4583 48.1666 21.3749H49.25C49.6389 21.3749 49.9722 21.236 50.25 20.9583C50.5278 20.6805 50.6666 20.3472 50.6666 19.9583C50.6666 19.5555 50.5278 19.2187 50.25 18.9478C49.9722 18.677 49.6389 18.5416 49.25 18.5416H40.75C40.3611 18.5416 40.0278 18.677 39.75 18.9478C39.4722 19.2187 39.3333 19.5555 39.3333 19.9583C39.3333 20.3472 39.4722 20.6805 39.75 20.9583C40.0278 21.236 40.3611 21.3749 40.75 21.3749H43.75C44.1805 21.3749 44.5903 21.4583 44.9791 21.6249C45.368 21.7916 45.6597 22.0555 45.8541 22.4166H40.75C40.3611 22.4166 40.0278 22.5555 39.75 22.8333C39.4722 23.111 39.3333 23.4444 39.3333 23.8333C39.3333 24.2222 39.4722 24.5555 39.75 24.8333C40.0278 25.111 40.3611 25.2499 40.75 25.2499H45.9166C45.7916 25.6388 45.5416 25.9305 45.1666 26.1249C44.7916 26.3194 44.368 26.4166 43.8958 26.4166H41.4791C41.1458 26.4166 40.8576 26.5381 40.6146 26.7812C40.3715 27.0242 40.25 27.3124 40.25 27.6458V28.3958C40.25 28.5624 40.2778 28.7187 40.3333 28.8645C40.3889 29.0103 40.4722 29.1388 40.5833 29.2499Z" fill="white"/>
<path d="M42.811 0C29.9958 0 19.2659 8.92809 16.5021 20.9036H19.895C20.0307 20.3922 20.1818 19.8869 20.3501 19.3898C19.3286 19.1212 18.572 18.1924 18.572 17.0878C18.572 15.7739 19.6409 14.705 20.9548 14.705H22.5354C26.6937 7.86208 34.2185 3.29122 42.811 3.29122C55.9049 3.29122 66.5195 13.9058 66.5195 26.9999C66.5195 40.0939 55.9048 50.7086 42.811 50.7086C31.3856 50.7086 21.8487 42.6264 19.6035 31.8677H16.2496C18.5417 44.4559 29.5613 54 42.811 54C57.7226 54 69.8109 41.9117 69.8109 27.0001C69.8109 12.0883 57.7226 0 42.811 0Z" fill="white"/>
<path fill-rule="evenodd" clip-rule="evenodd" d="M14.7565 18.6375H10.3697C9.6705 18.6375 9.10368 18.0708 9.10382 17.3715V16.8039C9.10382 16.1048 9.6705 15.5381 10.3697 15.5381H14.7565C15.6124 15.5381 16.3062 16.2319 16.3062 17.0878C16.3062 17.9437 15.6124 18.6375 14.7565 18.6375ZM13.9222 27.9353H19.6499C20.5056 27.9353 21.1996 28.6289 21.1996 29.4848C21.1996 30.3407 20.5058 31.0345 19.6499 31.0345H13.9222C13.3501 31.0345 12.8862 30.5707 12.8862 29.9985V28.9713C12.8862 28.3991 13.35 27.9353 13.9222 27.9353Z" fill="white"/>
<path d="M257.689 11.375V19.1875H237.923V11.375H257.689ZM241.751 4.1875H252.533V31.7266C252.533 32.1432 252.604 32.4948 252.747 32.7812C252.891 33.0547 253.112 33.263 253.411 33.4062C253.711 33.5365 254.095 33.6016 254.564 33.6016C254.889 33.6016 255.267 33.5625 255.697 33.4844C256.139 33.4062 256.465 33.3411 256.673 33.2891L258.236 40.8672C257.754 41.0104 257.064 41.1862 256.165 41.3945C255.28 41.6029 254.225 41.7396 253.001 41.8047C250.527 41.9349 248.451 41.681 246.771 41.043C245.091 40.3919 243.828 39.3698 242.982 37.9766C242.135 36.5833 241.725 34.8385 241.751 32.7422V4.1875Z" fill="white"/>
<path d="M220.711 41.9219C217.508 41.9219 214.748 41.3099 212.43 40.0859C210.125 38.849 208.348 37.0781 207.098 34.7734C205.861 32.4557 205.243 29.6823 205.243 26.4531C205.243 23.3542 205.868 20.6458 207.118 18.3281C208.368 16.0104 210.132 14.207 212.411 12.918C214.689 11.6289 217.378 10.9844 220.477 10.9844C222.743 10.9844 224.793 11.3359 226.629 12.0391C228.465 12.7422 230.034 13.7643 231.336 15.1055C232.638 16.4336 233.641 18.0482 234.344 19.9492C235.047 21.8503 235.399 23.9922 235.399 26.375V28.875H208.602V22.9375H225.477C225.464 22.0781 225.243 21.3229 224.813 20.6719C224.396 20.0078 223.83 19.4935 223.114 19.1289C222.411 18.7513 221.61 18.5625 220.711 18.5625C219.839 18.5625 219.038 18.7513 218.309 19.1289C217.58 19.4935 216.994 20.0013 216.551 20.6523C216.121 21.3034 215.894 22.0651 215.868 22.9375V29.3438C215.868 30.3073 216.069 31.1667 216.473 31.9219C216.877 32.6771 217.456 33.2695 218.211 33.6992C218.967 34.1289 219.878 34.3438 220.946 34.3438C221.688 34.3438 222.365 34.2396 222.977 34.0312C223.602 33.8229 224.136 33.5234 224.578 33.1328C225.021 32.7292 225.347 32.2474 225.555 31.6875H235.399C235.06 33.7708 234.259 35.5807 232.996 37.1172C231.733 38.6406 230.06 39.8255 227.977 40.6719C225.907 41.5052 223.485 41.9219 220.711 41.9219Z" fill="white"/>
<path d="M190.33 1.375H201.034V28.7969C201.021 31.401 200.363 33.6927 199.061 35.6719C197.772 37.638 195.988 39.1745 193.709 40.2812C191.444 41.375 188.833 41.9219 185.877 41.9219C183.312 41.9219 180.968 41.4792 178.846 40.5938C176.724 39.6953 175.031 38.2891 173.768 36.375C172.505 34.4479 171.88 31.9479 171.893 28.875H182.752C182.791 29.8776 182.961 30.724 183.26 31.4141C183.573 32.1042 184.002 32.625 184.549 32.9766C185.109 33.3151 185.786 33.4844 186.58 33.4844C187.388 33.4844 188.065 33.3086 188.612 32.957C189.172 32.6055 189.595 32.0846 189.881 31.3945C190.168 30.6914 190.317 29.8255 190.33 28.7969V1.375Z" fill="white"/>
<path d="M150.702 52.625C149.465 52.625 148.286 52.5273 147.166 52.332C146.047 52.1497 145.064 51.8958 144.217 51.5703L146.561 43.9141C147.446 44.2266 148.254 44.4284 148.983 44.5195C149.725 44.6107 150.356 44.5586 150.877 44.3633C151.411 44.168 151.795 43.7969 152.03 43.25L152.264 42.7031L141.717 11.375H152.967L157.811 32.1562H158.123L163.045 11.375H174.373L163.436 43.875C162.889 45.5286 162.095 47.013 161.053 48.3281C160.024 49.6562 158.67 50.7044 156.991 51.4727C155.311 52.2409 153.215 52.625 150.702 52.625Z" fill="white"/>
<path d="M121.078 41.8438C119.163 41.8438 117.471 41.5312 115.999 40.9062C114.541 40.2682 113.395 39.3047 112.562 38.0156C111.729 36.7266 111.312 35.0859 111.312 33.0938C111.312 31.4531 111.592 30.0534 112.152 28.8945C112.712 27.7227 113.493 26.7656 114.495 26.0234C115.498 25.2812 116.663 24.7148 117.992 24.3242C119.333 23.9336 120.778 23.6797 122.328 23.5625C124.007 23.4323 125.355 23.276 126.37 23.0938C127.399 22.8984 128.141 22.6315 128.597 22.293C129.053 21.9414 129.281 21.4792 129.281 20.9062V20.8281C129.281 20.0469 128.981 19.4479 128.382 19.0312C127.783 18.6146 127.015 18.4062 126.078 18.4062C125.049 18.4062 124.209 18.6341 123.558 19.0898C122.92 19.5326 122.536 20.2161 122.406 21.1406H112.484C112.614 19.3177 113.193 17.638 114.222 16.1016C115.264 14.5521 116.781 13.3151 118.773 12.3906C120.765 11.4531 123.252 10.9844 126.234 10.9844C128.382 10.9844 130.309 11.2383 132.015 11.7461C133.721 12.2409 135.173 12.9375 136.37 13.8359C137.568 14.7214 138.48 15.763 139.105 16.9609C139.743 18.1458 140.062 19.4349 140.062 20.8281V41.375H129.984V37.1562H129.749C129.15 38.276 128.421 39.181 127.562 39.8711C126.716 40.5612 125.745 41.0625 124.652 41.375C123.571 41.6875 122.38 41.8438 121.078 41.8438ZM124.593 35.0469C125.413 35.0469 126.182 34.8776 126.898 34.5391C127.627 34.2005 128.219 33.7122 128.675 33.0742C129.131 32.4362 129.359 31.6615 129.359 30.75V28.25C129.072 28.3672 128.766 28.4779 128.441 28.582C128.128 28.6862 127.79 28.7839 127.425 28.875C127.074 28.9661 126.696 29.0508 126.292 29.1289C125.902 29.207 125.492 29.2786 125.062 29.3438C124.229 29.474 123.545 29.6888 123.011 29.9883C122.49 30.2747 122.1 30.6328 121.839 31.0625C121.592 31.4792 121.468 31.9479 121.468 32.4688C121.468 33.3021 121.761 33.9401 122.347 34.3828C122.933 34.8255 123.682 35.0469 124.593 35.0469Z" fill="white"/>
<path d="M77.8109 41.375V1.375H95.0765C98.0453 1.375 100.643 1.96094 102.87 3.13281C105.096 4.30469 106.828 5.95182 108.065 8.07422C109.302 10.1966 109.92 12.6771 109.92 15.5156C109.92 18.3802 109.282 20.8607 108.006 22.957C106.743 25.0534 104.966 26.668 102.674 27.8008C100.396 28.9336 97.7328 29.5 94.6859 29.5H84.3734V21.0625H92.4984C93.7745 21.0625 94.8617 20.8411 95.7601 20.3984C96.6716 19.9427 97.3682 19.2982 97.85 18.4648C98.3448 17.6315 98.5922 16.6484 98.5922 15.5156C98.5922 14.3698 98.3448 13.3932 97.85 12.5859C97.3682 11.7656 96.6716 11.1406 95.7601 10.7109C94.8617 10.2682 93.7745 10.0469 92.4984 10.0469H88.6703V41.375H77.8109Z" fill="white"/>
</svg>
